solid Exported from Blender-3.0.0
facet normal 0.000000 1.000000 -0.000000
outer loop
vertex -0.153199 1.000000 3.922539
vertex 1.405891 1.000000 2.669846
vertex 0.153199 1.000000 1.110756
endloop
endfacet
facet normal 0.000000 1.000000 0.000000
outer loop
vertex -0.153199 1.000000 3.922539
vertex 0.153199 1.000000 1.110756
vertex -1.405891 1.000000 2.363449
endloop
endfacet
facet normal -0.626346 0.000000 -0.779545
outer loop
vertex -1.405891 -1.000000 2.363449
vertex -1.405891 1.000000 2.363449
vertex 0.153199 1.000000 1.110756
endloop
endfacet
facet normal -0.626346 0.000000 -0.779545
outer loop
vertex -1.405891 -1.000000 2.363449
vertex 0.153199 1.000000 1.110756
vertex 0.153199 -1.000000 1.110756
endloop
endfacet
facet normal 0.779545 0.000000 -0.626346
outer loop
vertex 0.153199 -1.000000 1.110756
vertex 0.153199 1.000000 1.110756
vertex 1.405891 1.000000 2.669846
endloop
endfacet
facet normal 0.779545 0.000000 -0.626346
outer loop
vertex 0.153199 -1.000000 1.110756
vertex 1.405891 1.000000 2.669846
vertex 1.405891 -1.000000 2.669846
endloop
endfacet
facet normal 0.000000 -1.000000 0.000000
outer loop
vertex 1.405891 -1.000000 2.669846
vertex -0.153199 -1.000000 3.922539
vertex -1.405891 -1.000000 2.363449
endloop
endfacet
facet normal 0.000000 -1.000000 0.000000
outer loop
vertex 1.405891 -1.000000 2.669846
vertex -1.405891 -1.000000 2.363449
vertex 0.153199 -1.000000 1.110756
endloop
endfacet
facet normal -0.779545 0.000000 0.626346
outer loop
vertex -0.153199 -1.000000 3.922539
vertex -0.153199 1.000000 3.922539
vertex -1.405891 1.000000 2.363449
endloop
endfacet
facet normal -0.779545 0.000000 0.626346
outer loop
vertex -0.153199 -1.000000 3.922539
vertex -1.405891 1.000000 2.363449
vertex -1.405891 -1.000000 2.363449
endloop
endfacet
facet normal 0.626346 0.000000 0.779545
outer loop
vertex 1.405891 -1.000000 2.669846
vertex 1.405891 1.000000 2.669846
vertex -0.153199 1.000000 3.922539
endloop
endfacet
facet normal 0.626346 0.000000 0.779545
outer loop
vertex 1.405891 -1.000000 2.669846
vertex -0.153199 1.000000 3.922539
vertex -0.153199 -1.000000 3.922539
endloop
endfacet
endsolid Exported from Blender-3.0.0
