solid Exported from Blender-3.0.0
facet normal -0.000000 0.974522 -0.224290
outer loop
vertex -34.536819 128.211227 458.063354
vertex 137.139374 105.198502 358.074860
vertex 34.536819 66.693245 190.772552
endloop
endfacet
facet normal 0.000000 0.974522 -0.224290
outer loop
vertex -34.536819 128.211227 458.063354
vertex 34.536819 66.693245 190.772552
vertex -137.139374 89.705978 290.761047
endloop
endfacet
facet normal -0.513013 -0.192526 -0.836511
outer loop
vertex -137.139374 -105.198502 335.619049
vertex -137.139374 89.705978 290.761047
vertex 34.536819 66.693245 190.772552
endloop
endfacet
facet normal -0.513013 -0.192526 -0.836512
outer loop
vertex -137.139374 -105.198502 335.619049
vertex 34.536819 66.693245 190.772552
vertex 34.536819 -128.211227 235.630554
endloop
endfacet
facet normal 0.858381 -0.115064 -0.499942
outer loop
vertex 34.536819 -128.211227 235.630554
vertex 34.536819 66.693245 190.772552
vertex 137.139374 105.198502 358.074860
endloop
endfacet
facet normal 0.858381 -0.115064 -0.499942
outer loop
vertex 34.536819 -128.211227 235.630554
vertex 137.139374 105.198502 358.074860
vertex 137.139374 -89.705978 402.932861
endloop
endfacet
facet normal -0.000000 -0.974522 0.224290
outer loop
vertex 137.139374 -89.705978 402.932861
vertex -34.536819 -66.693245 502.921356
vertex -137.139374 -105.198502 335.619049
endloop
endfacet
facet normal 0.000000 -0.974522 0.224290
outer loop
vertex 137.139374 -89.705978 402.932861
vertex -137.139374 -105.198502 335.619049
vertex 34.536819 -128.211227 235.630554
endloop
endfacet
facet normal -0.858381 0.115064 0.499942
outer loop
vertex -34.536819 -66.693245 502.921356
vertex -34.536819 128.211227 458.063354
vertex -137.139374 89.705978 290.761047
endloop
endfacet
facet normal -0.858381 0.115064 0.499942
outer loop
vertex -34.536819 -66.693245 502.921356
vertex -137.139374 89.705978 290.761047
vertex -137.139374 -105.198502 335.619049
endloop
endfacet
facet normal 0.513013 0.192526 0.836511
outer loop
vertex 137.139374 -89.705978 402.932861
vertex 137.139374 105.198502 358.074860
vertex -34.536819 128.211227 458.063354
endloop
endfacet
facet normal 0.513013 0.192526 0.836511
outer loop
vertex 137.139374 -89.705978 402.932861
vertex -34.536819 128.211227 458.063354
vertex -34.536819 -66.693245 502.921356
endloop
endfacet
endsolid Exported from Blender-3.0.0
