solid Exported from Blender-3.0.0
facet normal 0.000000 1.000000 0.000000
outer loop
vertex -100.000000 100.000000 446.846954
vertex 100.000000 100.000000 446.846954
vertex 100.000000 100.000000 246.846954
endloop
endfacet
facet normal 0.000000 1.000000 0.000000
outer loop
vertex -100.000000 100.000000 446.846954
vertex 100.000000 100.000000 246.846954
vertex -100.000000 100.000000 246.846954
endloop
endfacet
facet normal 0.000000 0.000000 -1.000000
outer loop
vertex -100.000000 -100.000000 246.846954
vertex -100.000000 100.000000 246.846954
vertex 100.000000 100.000000 246.846954
endloop
endfacet
facet normal 0.000000 0.000000 -1.000000
outer loop
vertex -100.000000 -100.000000 246.846954
vertex 100.000000 100.000000 246.846954
vertex 100.000000 -100.000000 246.846954
endloop
endfacet
facet normal 1.000000 0.000000 0.000000
outer loop
vertex 100.000000 -100.000000 246.846954
vertex 100.000000 100.000000 246.846954
vertex 100.000000 100.000000 446.846954
endloop
endfacet
facet normal 1.000000 0.000000 0.000000
outer loop
vertex 100.000000 -100.000000 246.846954
vertex 100.000000 100.000000 446.846954
vertex 100.000000 -100.000000 446.846954
endloop
endfacet
facet normal 0.000000 -1.000000 0.000000
outer loop
vertex 100.000000 -100.000000 446.846954
vertex -100.000000 -100.000000 446.846954
vertex -100.000000 -100.000000 246.846954
endloop
endfacet
facet normal 0.000000 -1.000000 0.000000
outer loop
vertex 100.000000 -100.000000 446.846954
vertex -100.000000 -100.000000 246.846954
vertex 100.000000 -100.000000 246.846954
endloop
endfacet
facet normal -1.000000 0.000000 0.000000
outer loop
vertex -100.000000 -100.000000 446.846954
vertex -100.000000 100.000000 446.846954
vertex -100.000000 100.000000 246.846954
endloop
endfacet
facet normal -1.000000 0.000000 0.000000
outer loop
vertex -100.000000 -100.000000 446.846954
vertex -100.000000 100.000000 246.846954
vertex -100.000000 -100.000000 246.846954
endloop
endfacet
facet normal 0.000000 0.000000 1.000000
outer loop
vertex 100.000000 -100.000000 446.846954
vertex 100.000000 100.000000 446.846954
vertex -100.000000 100.000000 446.846954
endloop
endfacet
facet normal 0.000000 0.000000 1.000000
outer loop
vertex 100.000000 -100.000000 446.846954
vertex -100.000000 100.000000 446.846954
vertex -100.000000 -100.000000 446.846954
endloop
endfacet
endsolid Exported from Blender-3.0.0
